<?xml version="1.0" encoding="UTF-8"?>
<svg xmlns="http://www.w3.org/2000/svg" xmlns:xlink="http://www.w3.org/1999/xlink" width="50px" height="50px" viewBox="0 0 50 50">
  <!-- Generator: Sketch 60.1 (88133) - https://sketch.com -->
  <title>3MThinsulate-black</title>
  <desc>Created with Sketch.</desc>
  <g id="3MThinsulate" stroke="none" stroke-width="1" fill="none" fill-rule="evenodd">
    <g id="Group-2" transform="translate(2.999861, 3.459276)">
      <path d="M22.3237113,1.9547449 C11.103866,1.9547449 1.97536082,10.9896429 1.97536082,22.0931633 C1.97536082,33.1985204 11.103866,42.2343367 22.3237113,42.2343367 C33.5430928,42.2343367 42.6706701,33.1985204 42.6706701,22.0931633 C42.6706701,10.9896429 33.5430928,1.9547449 22.3237113,1.9547449 M22.3237113,44.1890816 C10.0145876,44.1890816 0,34.2771429 0,22.0931633 C0,9.91056122 10.0145876,4.26325641e-14 22.3237113,4.26325641e-14 C34.6323711,4.26325641e-14 44.645567,9.91056122 44.645567,22.0931633 C44.645567,34.2771429 34.6323711,44.1890816 22.3237113,44.1890816" id="Fill-1" fill="#000000"></path>
      <line x1="7.5277626" y1="37.2954148" x2="37.3250277" y2="7.49814966" id="Path-8" stroke="#000000" stroke-width="2"></line>
      <g id="Group" transform="translate(22.920449, 22.461035) rotate(-45.000000) translate(-22.920449, -22.461035) translate(8.920449, 5.461035)" stroke="#000000" stroke-linecap="round" stroke-width="2">
        <path d="M13.9723766,-2.27373675e-13 C17.2860851,-2.27982394e-13 19.9723766,2.6862915 19.9723766,6 L19.9723766,18.9994497 L19.9723766,18.9994497 L14.1587956,24.9947048 L7.97237657,18.9320716 L7.97237657,6 C7.97237657,2.6862915 10.6586681,-2.26764957e-13 13.9723766,-2.27373675e-13 Z" id="Rectangle" stroke-linejoin="round"></path>
        <line x1="5.08748411" y1="29.3786848" x2="22.9254597" y2="11.5407093" id="Path-8" transform="translate(14.000000, 20.168904) rotate(-45.000000) translate(-14.000000, -20.168904) "></line>
        <line x1="13.5070619" y1="26.6514952" x2="19.4049396" y2="26.6514952" id="Path-8" transform="translate(16.474874, 26.886418) rotate(-45.000000) translate(-16.474874, -26.886418) "></line>
        <line x1="10.8502076" y1="30.0952897" x2="10.8502076" y2="22.1051923" id="Path-8" transform="translate(10.818019, 25.830213) rotate(-45.000000) translate(-10.818019, -25.830213) "></line>
      </g>
    </g>
  </g>
</svg>
