<?xml version="1.0" encoding="UTF-8"?>
<svg xmlns="http://www.w3.org/2000/svg" xmlns:xlink="http://www.w3.org/1999/xlink" width="50px" height="50px" viewBox="0 0 50 50">
  <!-- Generator: Sketch 60.1 (88133) - https://sketch.com -->
  <title>Authentic-raw-selvedge-black</title>
  <desc>Created with Sketch.</desc>
  <g id="Authentic-raw-selvedge" stroke="none" stroke-width="1" fill="none" fill-rule="evenodd">
    <g id="Group-11" transform="translate(16.000000, 12.700000)" stroke="#000000">
      <polygon id="Stroke-1" stroke-width="2" stroke-linecap="round" stroke-linejoin="round" points="9.45727222 0.708231481 16.0668278 0.708231481 17.3399204 24.3135278 11.6749759 24.3135278 8.98451296 11.0944167 6.37390185 24.3135278 0.70805 24.3135278 1.93758704 0.708231481"></polygon>
      <path d="M5.88662407,3.62955926 C5.70514259,6.77644815 4.41843889,8.3508 2.02651296,8.3508" id="Stroke-3" stroke-width="1.2"></path>
      <path d="M12.0452889,3.62955926 C12.225863,6.77644815 13.5125667,8.3508 15.9054,8.3508" id="Stroke-5" stroke-width="1.2"></path>
      <line x1="1.9374963" y1="3.4537037" x2="16.066737" y2="3.4537037" id="Stroke-7" stroke-width="1.2"></line>
      <path d="M8.3,3.62955926 L8.3,8.63844815 C8.3,8.63844815 9.8,8.90341111 9.8,7.84083704 L9.8,3.62955926 L8.3,3.62955926 Z" id="Stroke-9" stroke-width="1.2" stroke-linecap="round" stroke-linejoin="round"></path>
    </g>
    <path d="M25.3237113,4.9547449 C14.103866,4.9547449 4.97536082,13.9896429 4.97536082,25.0931633 C4.97536082,36.1985204 14.103866,45.2343367 25.3237113,45.2343367 C36.5430928,45.2343367 45.6706701,36.1985204 45.6706701,25.0931633 C45.6706701,13.9896429 36.5430928,4.9547449 25.3237113,4.9547449 M25.3237113,47.1890816 C13.0145876,47.1890816 3,37.2771429 3,25.0931633 C3,12.9105612 13.0145876,3 25.3237113,3 C37.6323711,3 47.645567,12.9105612 47.645567,25.0931633 C47.645567,37.2771429 37.6323711,47.1890816 25.3237113,47.1890816" id="Fill-1" fill="#000000"></path>
  </g>
</svg>
