<?xml version="1.0" encoding="UTF-8"?>
<svg xmlns="http://www.w3.org/2000/svg" xmlns:xlink="http://www.w3.org/1999/xlink" width="50px" height="50px" viewBox="0 0 50 50">
  <!-- Generator: Sketch 60.1 (88133) - https://sketch.com -->
  <title>Circular-black</title>
  <desc>Created with Sketch.</desc>
  <g id="Circular" stroke="none" stroke-width="1" fill="none" fill-rule="evenodd">
    <path d="M5.01238144,25.5101939 C5.01238144,14.4493776 14.1037732,5.44983673 25.2795464,5.44983673 C29.3648041,5.44983673 33.2612474,6.64784694 36.6149072,8.8960102 L34.2670206,9.20504082 C33.7168144,9.27713265 33.3294433,9.77902041 33.4022784,10.3240714 C33.4700103,10.8236633 33.9014536,11.1877959 34.3983093,11.1877959 C34.4428454,11.1877959 34.4869175,11.1855 34.5328454,11.1786122 L40.2455258,10.4269286 L39.4898041,4.76932653 C39.4165052,4.22381633 38.905268,3.83902041 38.3601649,3.91294898 C37.8094948,3.98504082 37.4225876,4.4860102 37.4954227,5.03060204 L37.7969691,7.28611224 C34.0972268,4.78953061 29.7925361,3.45927551 25.2795464,3.45927551 C12.9945464,3.45927551 2.99990722,13.3514694 2.99990722,25.5101939 C2.99990722,30.5350408 4.66351546,35.2673878 7.80841237,39.1970816 C8.00696907,39.4455 8.30109278,39.5745306 8.598,39.5745306 C8.81604124,39.5745306 9.03640206,39.5051939 9.22057732,39.3591735 C9.65712371,39.0175408 9.72995876,38.3925918 9.38619588,37.9600408 C6.52428866,34.3862143 5.01238144,30.0813673 5.01238144,25.5101939" id="Fill-1" fill="#000000"></path>
    <path d="M43.2500412,12.3084588 C42.9911753,11.7911907 42.3022577,11.7049021 41.8712784,12.0495928 C41.3540103,12.3084588 41.2677216,12.9978402 41.6124124,13.4288196 C44.112,16.9624794 45.4907629,21.0996959 45.4907629,25.4090258 C45.4907629,36.5272732 36.4411237,45.663201 25.2365876,45.663201 C21.1462268,45.663201 17.1421546,44.3948505 13.720299,42.0339742 L16.1006598,41.3534072 C16.6179278,41.2675825 16.9626186,40.6644897 16.7900412,40.1472216 C16.7042165,39.6304175 16.1006598,39.2852629 15.5838557,39.4573763 L10.0674124,41.0954691 L11.7050412,46.6972732 C11.7913299,47.1287165 12.2223093,47.3866546 12.6532887,47.3866546 C12.7391134,47.3866546 12.8254021,47.3866546 12.8254021,47.2145412 C13.3426701,47.1287165 13.6873608,46.5251598 13.5152474,46.0083557 L12.9038041,43.869232 C16.5998351,46.3530464 20.8386495,47.6455206 25.3228763,47.6455206 C37.6477732,47.6455206 47.6456598,37.647634 47.5593711,25.4953144 C47.5593711,20.6687165 46.0943196,16.1868093 43.2500412,12.3084588" id="Fill-7" fill="#000000"></path>
    <g id="Group-11" transform="translate(16.000000, 12.700000)" stroke="#000000">
      <polygon id="Stroke-1" stroke-width="2" stroke-linecap="round" stroke-linejoin="round" points="9.45727222 0.708231481 16.0668278 0.708231481 17.3399204 24.3135278 11.6749759 24.3135278 8.98451296 11.0944167 6.37390185 24.3135278 0.70805 24.3135278 1.93758704 0.708231481"></polygon>
      <path d="M5.88662407,3.62955926 C5.70514259,6.77644815 4.41843889,8.3508 2.02651296,8.3508" id="Stroke-3" stroke-width="1.2"></path>
      <path d="M12.0452889,3.62955926 C12.225863,6.77644815 13.5125667,8.3508 15.9054,8.3508" id="Stroke-5" stroke-width="1.2"></path>
      <line x1="1.9374963" y1="3.4537037" x2="16.066737" y2="3.4537037" id="Stroke-7" stroke-width="1.2"></line>
      <path d="M8.3,3.62955926 L8.3,8.63844815 C8.3,8.63844815 9.8,8.90341111 9.8,7.84083704 L9.8,3.62955926 L8.3,3.62955926 Z" id="Stroke-9" stroke-width="1.2" stroke-linecap="round" stroke-linejoin="round"></path>
    </g>
  </g>
</svg>
