<?xml version="1.0" encoding="UTF-8"?>
<svg xmlns="http://www.w3.org/2000/svg" xmlns:xlink="http://www.w3.org/1999/xlink" width="50px" height="50px" viewBox="0 0 50 50">
  <!-- Generator: Sketch 61.2 (89653) - https://sketch.com -->
  <title>Dip-less Denim-black</title>
  <desc>Created with Sketch.</desc>
  <g id="Dip-less-Denim" stroke="none" stroke-width="1" fill="none" fill-rule="evenodd">
    <g id="Group-41" transform="translate(7.000000, 5.000000)" stroke="#010202">
      <polygon id="Stroke-1" stroke-width="2" stroke-linecap="round" stroke-linejoin="round" points="25.4201 26.6 20.7501 26.6 20.0901 23.35 19.3401 19.66 19.3401 19.65 18.5801 15.93 18.0601 13.38 17.7401 15 17.2701 17.37 16.8101 19.73 16.3401 22.09 15.8801 24.44 15.4501 26.6 10.7801 26.6 11.0101 0 25.1401 0"></polygon>
      <path d="M10.9401,7.5502 C13.1701,7.4102 14.7901,5.7502 14.9601,2.7402" id="Stroke-3" stroke-width="1.2"></path>
      <path d="M21.1198,2.7401 C21.2898,5.7401 22.9898,7.4701 25.2198,7.6301" id="Stroke-5" stroke-width="1.2"></path>
      <polyline id="Stroke-7" stroke-width="1.2" points="10.8718 2.7396 14.9618 2.7396 17.3718 2.7396 18.8718 2.7396 21.1218 2.7396 25.2918 2.7396"></polyline>
      <path d="M17.3757,2.7435 L17.3757,7.7525 C17.3757,7.7525 18.8757,8.0175 18.8757,6.9545 L18.8757,2.7435 L17.3757,2.7435 Z" id="Stroke-9" stroke-width="1.2" stroke-linecap="round" stroke-linejoin="round"></path>
      <path d="M36.1999,7.2601 L33.2299,7.2601 L33.2299,12.6201 L33.2299,39.8001 C33.2299,39.8801 33.1699,39.9501 33.0899,39.9501 L2.9399,39.9501 C2.8599,39.9501 2.7999,39.8801 2.7999,39.8001 L2.7999,12.8701 L2.7999,12.6201 L2.7999,7.2601 L-0.0001,7.2601" id="Stroke-11" stroke-width="2" stroke-linecap="round" stroke-linejoin="round"></path>
      <polyline id="Stroke-13" stroke-width="2" stroke-linecap="round" stroke-linejoin="round" points="2.8 12.62 5.17 12.62 7.77 12.62 10.37 12.62 10.43 12.62 12.97 12.62 15.58 12.62 18.18 12.62 20.78 12.62 23.38 12.62 25.75 12.62 33.23 12.62"></polyline>
      <line x1="17.2702" y1="17.37" x2="12.9702" y2="12.62" id="Stroke-15"></line>
      <polyline id="Stroke-17" points="25.4201 26.37 19.3401 19.66 19.3401 19.65"></polyline>
      <line x1="23.03" y1="26.6" x2="20.09" y2="23.35" id="Stroke-19"></line>
      <line x1="16.8102" y1="19.7298" x2="10.9002" y2="13.1998" id="Stroke-21"></line>
      <line x1="16.34" y1="22.0902" x2="10.87" y2="16.0402" id="Stroke-23"></line>
      <line x1="25.36" y1="20.5399" x2="18.18" y2="12.6199" id="Stroke-25"></line>
      <line x1="25.3898" y1="23.4501" x2="18.5798" y2="15.9301" id="Stroke-27"></line>
      <line x1="17.7399" y1="14.9999" x2="15.5799" y2="12.6199" id="Stroke-29"></line>
      <line x1="25.3" y1="14.7298" x2="23.38" y2="12.6198" id="Stroke-31"></line>
      <line x1="25.3298" y1="17.6302" x2="20.7798" y2="12.6202" id="Stroke-33"></line>
      <line x1="15.8801" y1="24.4398" x2="10.8501" y2="18.8898" id="Stroke-35"></line>
      <line x1="15.2302" y1="26.6" x2="10.8202" y2="21.73" id="Stroke-37"></line>
      <line x1="12.6301" y1="26.6" x2="10.8001" y2="24.58" id="Stroke-39"></line>
    </g>
  </g>
</svg>
