<?xml version="1.0" encoding="UTF-8"?>
<svg xmlns="http://www.w3.org/2000/svg" xmlns:xlink="http://www.w3.org/1999/xlink" width="50px" height="50px" viewBox="0 0 50 50">
  <!-- Generator: Sketch 60.1 (88133) - https://sketch.com -->
  <title>DynamicStretch-black</title>
  <desc>Created with Sketch.</desc>
  <g id="DynamicStretch" stroke="none" stroke-width="1" fill="none" fill-rule="evenodd">
    <g transform="translate(2.500000, 5.000000)" fill="#000000" id="Fill-1">
      <path d="M5.70827446,11.6672924 L0.0404755435,5.97503701 L5.70827446,0.277890275 C6.07634511,-0.0914032031 6.67308424,-0.0926260292 7.04360054,0.274221797 C7.41411685,0.642292449 7.41533967,1.24025441 7.04726902,1.60954788 L3.64658967,5.02979245 L44.0275491,5.02979245 C44.548473,5.02979245 44.9715708,5.45166745 44.9715708,5.97381419 C44.9715708,6.49596093 44.548473,6.91905875 44.0275491,6.91905875 L3.64536685,6.91905875 L7.04726902,10.3368577 C7.41533967,10.7049283 7.41411685,11.3041131 7.04360054,11.6709609 C6.86017663,11.8556077 6.61805707,11.9460968 6.37716033,11.9460968 C6.13504076,11.9460968 5.8929212,11.853162 5.70827446,11.6672924 Z M37.9994429,25.2932435 C37.6301495,24.9251729 37.6277038,24.3272109 37.9957745,23.9579174 L41.4392527,20.494874 L0.974413597,20.4899827 C0.452266858,20.4899827 0.029169032,20.0668848 0.029169032,19.5459609 C0.029169032,19.0238142 0.453489684,18.6007164 0.974413597,18.6007164 L41.3561005,18.6056077 L37.9957745,15.2293848 C37.6277038,14.8588685 37.6301495,14.2621294 37.9994429,13.8940588 C38.3687364,13.5247653 38.9666984,13.5272109 39.3335462,13.8977272 L45.0001223,19.5924283 L39.3335462,25.2895751 C39.1501223,25.4742218 38.9080027,25.5683794 38.6646603,25.5683794 C38.4237636,25.5683794 38.1840897,25.4766674 37.9994429,25.2932435 Z M5.70827446,38.8128088 L0.0416983696,33.1168848 L5.70827446,27.4197381 C6.07634511,27.0528903 6.67308424,27.0492218 7.04360054,27.4160696 C7.41411685,27.7841403 7.41533967,28.3821022 7.04726902,28.7513957 L3.64658967,32.1728631 L44.0437407,32.1728631 C44.5658875,32.1728631 44.9889853,32.5959609 44.9889853,33.1168848 C44.9889853,33.6390316 44.5658875,34.0609066 44.0437407,34.0609066 L3.64536685,34.0609066 L7.04726902,37.4811511 C7.41533967,37.8516674 7.41411685,38.4484066 7.04360054,38.8164772 C6.8589538,38.9999011 6.61805707,39.0903903 6.37716033,39.0903903 C6.13504076,39.0903903 5.8929212,38.9974555 5.70827446,38.8128088 Z"></path>
    </g>
  </g>
</svg>
