<?xml version="1.0" encoding="UTF-8"?>
<svg xmlns="http://www.w3.org/2000/svg" xmlns:xlink="http://www.w3.org/1999/xlink" width="50px" height="50px" viewBox="0 0 50 50">
  <!-- Generator: Sketch 60.1 (88133) - https://sketch.com -->
  <title>EasyCare-black</title>
  <desc>Created with Sketch.</desc>
  <g id="EasyCare" stroke="none" stroke-width="1" fill="none" fill-rule="evenodd" stroke-linecap="round">
    <g transform="translate(10.000000, 3.000000)" stroke="#000000" stroke-width="2">
      <line x1="15.6406923" y1="21.557094" x2="15.6406923" y2="40.5358291" id="Stroke-1"></line>
      <polyline id="Stroke-2" points="19.2486154 24.0388923 15.6398974 20.4689778 12.0311795 24.0388923"></polyline>
      <g id="Group-11" transform="translate(0.000000, 0.890749)">
        <path d="M0.733825641,43.7017299 C2.1073641,43.7017299 3.48249231,43.3431658 4.39977436,42.6276103 C6.23115897,41.1964991 9.89710769,41.1964991 11.7284923,42.6276103 C13.5598769,44.060294 17.2258256,44.060294 19.0572103,42.6276103 C20.8917744,41.1964991 24.5545436,41.1964991 26.3875179,42.6276103 C27.2682359,43.3164308 28.5765949,43.6734222 29.8992615,43.7001573" id="Stroke-3"></path>
        <path d="M28.8384256,33.8695248 L2.44232308,33.8695248 C1.54252821,33.8695248 0.804887179,33.1398154 0.804887179,32.2496957 L0.804887179,12.4704821 C0.804887179,11.5787897 1.54252821,10.8490803 2.44232308,10.8490803 L28.8384256,10.8490803 C29.7382205,10.8490803 30.4758615,11.5787897 30.4758615,12.4704821 L30.4758615,32.2496957 C30.4758615,33.1398154 29.7382205,33.8695248 28.8384256,33.8695248 Z" id="Stroke-5"></path>
        <path d="M15.6406923,5.77681368 C14.0906923,5.77681368 12.8347949,4.53442051 12.8347949,3.00265983 C12.8347949,1.47089915 14.0906923,0.228505983 15.6406923,0.228505983 C17.1906923,0.228505983 18.445,1.47089915 18.445,3.00265983" id="Stroke-7"></path>
        <line x1="15.6406923" y1="7.74577094" x2="15.6406923" y2="5.77681368" id="Stroke-9"></line>
      </g>
    </g>
  </g>
</svg>
