<?xml version="1.0" encoding="UTF-8"?>
<svg xmlns="http://www.w3.org/2000/svg" xmlns:xlink="http://www.w3.org/1999/xlink" width="50px" height="50px" viewBox="0 0 50 50">
  <!-- Generator: Sketch 60.1 (88133) - https://sketch.com -->
  <title>Hydro-less-black</title>
  <desc>Created with Sketch.</desc>
  <g id="Hydro-less" stroke="none" stroke-width="1" fill="none" fill-rule="evenodd">
    <g id="HydroLessDenim" transform="translate(3.000000, 3.000000)" fill="#000000">
      <path d="M22.6676134,8.61889175 C15.0830258,8.61889175 8.87720103,14.8242526 8.87720103,22.4093041 C8.87720103,29.9934278 15.0830258,36.1987887 22.6676134,36.1987887 C30.252201,36.1987887 36.4580258,29.9934278 36.4580258,22.4093041 C36.4580258,14.8242526 30.252201,8.61889175 22.6676134,8.61889175 M22.6676134,38.1815722 C13.9626649,38.1815722 6.89488144,31.0279639 6.89488144,22.4093041 C6.89488144,13.7897165 13.9626649,6.63657216 22.6676134,6.63657216 C31.3725619,6.63657216 38.4403454,13.7038918 38.4403454,22.4093041 C38.4403454,31.1137887 31.3725619,38.1815722 22.6676134,38.1815722" id="Fill-1"></path>
      <path d="M34.9063608,22.6673351 C34.9063608,21.8058402 34.9063608,21.0301701 34.8200722,20.1677474 C34.5616701,20.0819227 34.303268,20.1677474 34.1306907,20.3403247 C32.6651753,21.8916649 29.3903814,24.7359433 26.6323918,23.8744485 C23.357134,22.8399124 23.9602268,20.3403247 19.909299,18.6168711 C16.5482165,17.2376443 12.2388866,20.7713041 10.8601237,21.9779536 C10.7733711,22.0642423 10.6012577,22.2363557 10.5149691,22.3226443 L10.5149691,22.6673351 C10.5149691,28.3558918 14.5658969,33.096201 19.9955876,34.3028505 C20.8575464,34.4754278 21.8057938,34.5617165 22.839866,34.5617165 C23.357134,34.5617165 23.8744021,34.5617165 24.3912062,34.4754278 C30.2523402,33.7860464 34.9063608,28.7868711 34.9063608,22.6673351" id="Fill-3"></path>
      <path d="M2.06860825,22.1504381 C2.06860825,11.0321907 11.1182474,1.89626289 22.3227835,1.89626289 C26.5026804,1.89626289 30.442268,3.1567268 33.8576289,5.5018299 L31.286134,5.86090206 C30.7693299,5.9467268 30.3383505,6.46399485 30.4246392,6.98126289 C30.5109278,7.49853093 30.9419072,7.84322165 31.4587113,7.84322165 L31.545,7.84322165 L37.2335567,7.06755155 L36.4574227,1.37899485 C36.3715979,0.861726804 35.8547938,0.43121134 35.3370619,0.517036082 C34.8202577,0.603324742 34.3892784,1.12059278 34.4751031,1.63739691 L34.7706186,3.75332474 C31.0741237,1.28481959 26.814433,0.000231958763 22.3227835,0.000231958763 C9.9978866,0.000231958763 0,9.99811856 0,22.3225515 C0,27.4080155 1.63762887,32.2341495 4.82659794,36.1987887 C4.99871134,36.371366 5.34386598,36.5434794 5.60226804,36.5434794 C5.8606701,36.5434794 6.11953608,36.4576546 6.29164948,36.1129639 C6.72262887,35.7682732 6.80891753,35.1651804 6.4642268,34.7337371 C3.61994845,31.1137887 2.06860825,26.8044588 2.06860825,22.1504381" id="Fill-5"></path>
      <path d="M40.2500412,9.30845876 C39.9911753,8.79119072 39.3022577,8.70490206 38.8712784,9.04959278 C38.3540103,9.30845876 38.2677216,9.99784021 38.6124124,10.4288196 C41.112,13.9624794 42.4907629,18.0996959 42.4907629,22.4090258 C42.4907629,33.5272732 33.4411237,42.663201 22.2365876,42.663201 C18.1462268,42.663201 14.1421546,41.3948505 10.720299,39.0339742 L13.1006598,38.3534072 C13.6179278,38.2675825 13.9626186,37.6644897 13.7900412,37.1472216 C13.7042165,36.6304175 13.1006598,36.2852629 12.5838557,36.4573763 L7.06741237,38.0954691 L8.70504124,43.6972732 C8.7913299,44.1287165 9.22230928,44.3866546 9.65328866,44.3866546 C9.7391134,44.3866546 9.82540206,44.3866546 9.82540206,44.2145412 C10.3426701,44.1287165 10.6873608,43.5251598 10.5152474,43.0083557 L9.90380412,40.869232 C13.5998351,43.3530464 17.8386495,44.6455206 22.3228763,44.6455206 C34.6477732,44.6455206 44.6456598,34.647634 44.5593711,22.4953144 C44.5593711,17.6687165 43.0943196,13.1868093 40.2500412,9.30845876" id="Fill-7"></path>
    </g>
  </g>
</svg>
