<?xml version="1.0" encoding="UTF-8"?>
<svg xmlns="http://www.w3.org/2000/svg" xmlns:xlink="http://www.w3.org/1999/xlink" width="50px" height="50px" viewBox="0 0 50 50">
  <!-- Generator: Sketch 60.1 (88133) - https://sketch.com -->
  <title>In-transit-black</title>
  <desc>Created with Sketch.</desc>
  <g id="In-transit" stroke="none" stroke-width="1" fill="none" fill-rule="evenodd">
    <g id="Group" transform="translate(4.000000, 4.000000)" stroke="#000000" stroke-width="2">
      <path d="M13.8699313,15.0854695 L23.693,19.369 L31.8391946,17.6891392 C32.5238031,17.5479393 33.2334618,17.588611 33.8974559,17.8071016 L37.3890249,18.9560199 C38.0839605,19.184692 38.4619417,19.9334238 38.2332697,20.6283594 C38.088468,21.0684127 37.7242984,21.4008478 37.272902,21.5050387 L12.2786139,27.2741983 C11.0666226,27.553949 9.79346356,27.2539542 8.83387728,26.4625138 L4.86296759,23.1874168 C4.2035549,22.6435514 4.10988534,21.6681017 4.65375078,21.008689 C5.0394054,20.5410999 5.66251344,20.3416638 6.24800105,20.4984225 L11.4567159,21.8930065 L14.949,21.173 L10.4480094,17.2576174 C10.0313199,16.8951421 9.98737063,16.2635043 10.3498459,15.8468148 C10.4924556,15.6828754 10.6845821,15.5698465 10.8971548,15.5248302 L13.2630493,15.023808 C13.4668282,14.9806541 13.6789964,15.0022112 13.8699313,15.0854695 Z" id="Combined-Shape"></path>
      <circle id="Oval" cx="21.5" cy="21.5" r="21.5"></circle>
    </g>
  </g>
</svg>
