<?xml version="1.0" encoding="UTF-8"?>
<svg xmlns="http://www.w3.org/2000/svg" xmlns:xlink="http://www.w3.org/1999/xlink" width="50px" height="50px" viewBox="0 0 50 50">
  <!-- Generator: Sketch 60.1 (88133) - https://sketch.com -->
  <title>LiteWeave-black</title>
  <desc>Created with Sketch.</desc>
  <g id="LiteWeave" stroke="none" stroke-width="1" fill="none" fill-rule="evenodd" stroke-linecap="round">
    <g id="LiteWear" transform="translate(3.000000, 5.000000)" stroke="#000000" stroke-width="2">
      <path d="M1.02159091,3.16340909 C2.19886364,3.16340909 3.37159091,2.63840909 4.15568182,1.58386364 C5.72159091,-0.5275 8.85340909,-0.5275 10.4215909,1.58386364 C11.9875,3.69068182 15.1193182,3.69068182 16.6875,1.58386364 C18.2534091,-0.5275 21.3852273,-0.5275 22.9511364,1.58386364 C23.7056818,2.5975 24.8238636,3.1225 25.9534091,3.16113636" id="Stroke-1"></path>
      <line x1="43.9238636" y1="3.17" x2="25.8556818" y2="3.17" id="Stroke-3"></line>
      <path d="M1.02159091,13.8656818 C2.19886364,13.8656818 3.37159091,13.3384091 4.15568182,12.2838636 C5.72159091,10.1725 8.85340909,10.1725 10.4215909,12.2838636 C11.9875,14.3929545 15.1193182,14.3929545 16.6875,12.2838636 C18.2534091,10.1725 21.3852273,10.1725 22.9511364,12.2838636 C23.7056818,13.2975 24.8238636,13.8247727 25.9534091,13.8634091" id="Stroke-5"></path>
      <line x1="43.9238636" y1="13.8722727" x2="25.8556818" y2="13.8722727" id="Stroke-7"></line>
      <path d="M1.02159091,25.3225 C2.19886364,25.3225 3.37159091,24.7975 4.15568182,23.7429545 C5.72159091,21.6315909 8.85340909,21.6315909 10.4215909,23.7429545 C11.9875,25.8497727 15.1193182,25.8497727 16.6875,23.7429545 C18.2534091,21.6315909 21.3852273,21.6315909 22.9511364,23.7429545 C23.7056818,24.7565909 24.8238636,25.2815909 25.9534091,25.3202273" id="Stroke-9"></path>
      <line x1="43.9238636" y1="25.3290909" x2="25.8556818" y2="25.3290909" id="Stroke-11"></line>
      <path d="M1.02159091,36.4975 C2.19886364,36.4975 3.37159091,35.9725 4.15568182,34.9156818 C5.72159091,32.8065909 8.85340909,32.8065909 10.4215909,34.9156818 C11.9875,37.0247727 15.1193182,37.0247727 16.6875,34.9156818 C18.2534091,32.8065909 21.3852273,32.8065909 22.9511364,34.9156818 C23.7056818,35.9315909 24.8238636,36.4565909 25.9534091,36.4952273" id="Stroke-13"></path>
      <g id="Group-17" transform="translate(25.000000, 36.276818)">
        <line x1="18.9238636" y1="0.227272727" x2="0.855681818" y2="0.227272727" id="Stroke-15"></line>
      </g>
    </g>
  </g>
</svg>
