<?xml version="1.0" encoding="UTF-8"?>
<svg xmlns="http://www.w3.org/2000/svg" xmlns:xlink="http://www.w3.org/1999/xlink" width="50px" height="50px" viewBox="0 0 50 50">
  <!-- Generator: Sketch 61.2 (89653) - https://sketch.com -->
  <title>Packable Universel-black</title>
  <desc>Created with Sketch.</desc>
  <g id="Packable-Universel" stroke="none" stroke-width="1" fill="none" fill-rule="evenodd" stroke-linecap="round" stroke-linejoin="round">
    <g id="Group" transform="translate(3.666457, 8.344747)" stroke-width="2">
      <path d="M35.1501199,11.1717989 L31.7664814,9.90550617 C31.113601,9.66087203 30.7817409,8.93775007 31.0252161,8.28677446 L33.9969479,0.32331105 C33.9969479,0.32331105 37.2630179,-1.26307919 39.827012,2.5921891 L36.5817876,10.5490184 C36.3533211,11.1079452 35.7187846,11.3840915 35.1501199,11.1717989 Z" id="Stroke-5" stroke="#231F20"></path>
      <polyline id="Stroke-7" stroke="#231F20" points="21.6266558 0.624169587 21.6266558 9.17558422 21.6266558 0.624169587"></polyline>
      <path d="M26.0677438,3.21845251 L26.0677438,0.494306172 L17.1850674,0.494306172 L17.1850674,3.21845251 C17.1850674,3.21845251 12.2405193,4.49055007 9.17206452,7.25864764 C6.10194207,10.0259159 -0.94549816,20.2615745 0.105947904,32.188111 C2.61240855,32.9750867 4.8203619,32.9750867 4.8203619,32.9750867 L10.7863386,16.068794 L10.7863386,16.0663062 L31.8819654,15.9983062" id="Stroke-9" stroke="#231F20"></path>
      <polyline id="Stroke-11" stroke="#231F20" points="10.7805018 16.0660574 11.5759654 9.27600861 31.0739946 9.27600861 31.8819654 15.9980574"></polyline>
      <path d="M31.8816319,15.9979745 L38.4304482,32.9755842 C38.4304482,32.9755842 40.640903,32.9755842 43.1440284,32.1877793 C43.8102499,24.6746086 41.7656309,20.3243501 39.048214,15.1157159" id="Stroke-13" stroke="#231F20"></path>
      <path d="M26.0677438,3.21845251 C26.0677438,3.21845251 29.2120762,4.02201349 32.003703,5.66811105" id="Stroke-15" stroke="#231F20"></path>
      <path d="M36.2836138,10.9693745 C36.2836138,10.9693745 42.0156773,12.734021 40.0374442,14.7027166 C38.0579445,16.6701526 36.2836138,10.9693745 36.2836138,10.9693745 Z" id="Stroke-17" stroke="#231F20"></path>
      <path d="M26.6531841,33.6552525 C26.6531841,27.256429 24.4578899,22.0783898 22.1778899,22.0783898 C21.1371056,22.0783898 20.3673017,23.2611349 20.3673017,24.8399584" id="Stroke-15" stroke="#000000" transform="translate(23.510243, 27.866821) rotate(-180.000000) translate(-23.510243, -27.866821) "></path>
      <polyline id="Stroke-17" stroke="#000000" transform="translate(20.441302, 22.712468) rotate(-180.000000) translate(-20.441302, -22.712468) " points="22.4413017 21.7124682 20.6139181 23.7124682 18.4413017 22.0293383"></polyline>
    </g>
  </g>
</svg>
