<?xml version="1.0" encoding="UTF-8"?>
<svg xmlns="http://www.w3.org/2000/svg" xmlns:xlink="http://www.w3.org/1999/xlink" width="50px" height="50px" viewBox="0 0 50 50">
  <!-- Generator: Sketch 61.2 (89653) - https://sketch.com -->
  <title>Reversible Copy-black</title>
  <desc>Created with Sketch.</desc>
  <g id="Reversible-Copy" stroke="none" stroke-width="1" fill="none" fill-rule="evenodd" stroke-linecap="round">
    <g id="Group-10" transform="translate(4.000000, 8.000000)" stroke="#010202" stroke-width="2">
      <g id="Group-9">
        <path d="M17.3792,4.2817 C16.0102,3.7927 14.5362,3.5257 13.0002,3.5257 C5.8202,3.5257 0.0002,9.3457 0.0002,16.5257 C0.0002,23.7057 5.8202,29.5257 13.0002,29.5257 C20.1802,29.5257 26.0002,23.7057 26.0002,16.5257 C26.0002,14.2997 25.4402,12.2027 24.4532,10.3707" id="Stroke-1"></path>
        <polyline id="Stroke-3" points="14.843 0.0004 17.409 4.2904 13.119 6.8574"></polyline>
        <path d="M25.3704,28.7592 C26.7384,29.2482 28.2134,29.5152 29.7494,29.5152 C36.9294,29.5152 42.7494,23.6952 42.7494,16.5152 C42.7494,9.3352 36.9294,3.5152 29.7494,3.5152 C22.5694,3.5152 16.7494,9.3352 16.7494,16.5152 C16.7494,18.7412 17.3084,20.8372 18.2964,22.6692" id="Stroke-5"></path>
        <polyline id="Stroke-7" points="27.9065 33.0405 25.3405 28.7495 29.6305 26.1835"></polyline>
      </g>
    </g>
  </g>
</svg>
