<?xml version="1.0" encoding="UTF-8"?>
<svg xmlns="http://www.w3.org/2000/svg" xmlns:xlink="http://www.w3.org/1999/xlink" width="50px" height="50px" viewBox="0 0 50 50">
  <!-- Generator: Sketch 60.1 (88133) - https://sketch.com -->
  <title>SafeBlack-black</title>
  <desc>Created with Sketch.</desc>
  <g id="SafeBlack" stroke="none" stroke-width="1" fill="none" fill-rule="evenodd">
    <g transform="translate(4.000000, 4.000000)">
      <path d="M13.04948,32.7001333 L28.9235867,32.7001333 L28.9235867,20.1268 L25.7103417,17.5361333 C25.5006352,17.3668 25.3775172,17.1134667 25.3775172,16.8441333 L25.3775172,15.8454667 C25.3775172,15.5708 25.506047,15.3121333 25.7238712,15.1441333 C25.7928714,15.0908 25.8415774,15.0468 25.8781069,15.0094667 C25.5709883,14.8574667 25.3775172,14.5494667 25.3775172,14.2121333 L25.3775172,13.5534667 C25.3775172,13.0601333 25.7834007,12.6601333 26.2839905,12.6601333 L27.1728755,12.6601333 L27.1728755,9.18013333 L14.8001911,9.18013333 L14.8001911,12.6601333 L15.6890762,12.6601333 C16.1896659,12.6601333 16.5955495,13.0601333 16.5955495,13.5534667 L16.5955495,14.2121333 C16.5955495,14.5494667 16.4034313,14.8574667 16.0949598,15.0094667 C16.1314893,15.0468 16.1801953,15.0908 16.2491955,15.1441333 C16.4670197,15.3121333 16.5955495,15.5708 16.5955495,15.8454667 L16.5955495,16.8441333 C16.5955495,17.1134667 16.4724315,17.3668 16.2640779,17.5361333 L13.04948,20.1268 L13.04948,32.7001333 Z M29.83006,34.4868 L12.1430067,34.4868 C11.6424169,34.4868 11.2365333,34.0868 11.2365333,33.5934667 L11.2365333,19.7041333 C11.2365333,19.4361333 11.3596514,19.1814667 11.5693579,19.0121333 L14.7826029,16.4214667 L14.7826029,16.2401333 C14.2617189,15.7014667 14.1818952,15.1854667 14.2184247,14.8254667 C14.2319541,14.6908 14.2630719,14.5628 14.310425,14.4468 L13.8937178,14.4468 C13.3931281,14.4468 12.9872445,14.0468 12.9872445,13.5534667 L12.9872445,8.28813333 C12.9872445,7.7948 13.3931281,7.3948 13.8937178,7.3948 L28.0793488,7.3948 C28.5799386,7.3948 28.9858222,7.7948 28.9858222,8.28813333 L28.9858222,13.5534667 C28.9858222,14.0468 28.5799386,14.4468 28.0793488,14.4468 L27.6639947,14.4468 C27.7099948,14.5628 27.7411125,14.6908 27.754642,14.8254667 C27.7911715,15.1854667 27.7127007,15.7014667 27.1904638,16.2401333 L27.1904638,16.4214667 L30.4037088,19.0121333 C30.6134153,19.1814667 30.7365333,19.4361333 30.7365333,19.7041333 L30.7365333,33.5934667 C30.7365333,34.0868 30.3306498,34.4868 29.83006,34.4868 L29.83006,34.4868 Z" id="Fill-4" fill="#000000"></path>
      <path d="M16.2725466,29.4951605 L25.7248038,29.4951605 L25.7248038,23.2192099 L16.2725466,23.2192099 L16.2725466,29.4951605 Z M26.6124019,31.2143704 L15.3862733,31.2143704 C14.8961072,31.2143704 14.5,30.8291852 14.5,30.3554074 L14.5,22.358963 C14.5,21.8851852 14.8961072,21.5 15.3862733,21.5 L26.6124019,21.5 C27.102568,21.5 27.5,21.8851852 27.5,22.358963 L27.5,30.3554074 C27.5,30.8291852 27.102568,31.2143704 26.6124019,31.2143704 L26.6124019,31.2143704 Z" id="Fill-6" fill="#000000"></path>
      <polygon id="Fill-9" fill="#000000" points="15.5973333 14.4493333 26.0386667 14.4493333 26.0386667 12.6626667 15.5973333 12.6626667"></polygon>
      <circle id="Oval" stroke="#000000" stroke-width="2" cx="21.5" cy="21.5" r="21.5"></circle>
    </g>
  </g>
</svg>
