<?xml version="1.0" encoding="UTF-8"?>
<svg xmlns="http://www.w3.org/2000/svg" xmlns:xlink="http://www.w3.org/1999/xlink" width="50px" height="50px" viewBox="0 0 50 50">
  <!-- Generator: Sketch 60.1 (88133) - https://sketch.com -->
  <title>SpecialDyes-black</title>
  <desc>Created with Sketch.</desc>
  <g id="SpecialDyes" stroke="none" stroke-width="1" fill="none" fill-rule="evenodd" stroke-linecap="round">
    <g transform="translate(3.000000, 8.000000)" stroke="#000000" stroke-width="2">
      <path d="M0.022745098,21.9573744 C2.11686275,21.9573744 4.21490196,21.4097846 5.61098039,20.3126564 C8.40313725,18.1203487 13.9913725,18.1203487 16.7854902,20.3126564 C19.5796078,22.5069128 25.1658824,22.5069128 27.96,20.3126564 C30.7541176,18.1203487 36.3403922,18.1203487 39.1345098,20.3126564 C40.4796078,21.3688615 42.4717647,21.9164513 44.487451,21.9554256" id="Stroke-1"></path>
      <path d="M0.022745098,28.5837949 C2.11686275,28.5837949 4.21490196,28.0362051 5.61098039,26.9390769 C8.40313725,24.7448205 13.9913725,24.7448205 16.7854902,26.9390769 C19.5796078,29.1313846 25.1658824,29.1313846 27.96,26.9390769 C30.7541176,24.7448205 36.3403922,24.7448205 39.1345098,26.9390769 C40.4796078,27.9933333 42.4717647,28.5428718 44.487451,28.5818462" id="Stroke-3"></path>
      <path d="M36.5709804,33.8837231 L7.93764706,33.8837231 C6.7454902,33.8837231 5.76901961,32.9132615 5.76901961,31.728441 L5.76901961,2.17613333 C5.76901961,0.991312821 6.7454902,0.0228 7.93764706,0.0228 L36.5709804,0.0228 C37.7631373,0.0228 38.7396078,0.991312821 38.7396078,2.17613333 L38.7396078,31.728441 C38.7396078,32.9132615 37.7631373,33.8837231 36.5709804,33.8837231 Z" id="Stroke-5"></path>
    </g>
  </g>
</svg>
