<?xml version="1.0" encoding="UTF-8"?>
<svg xmlns="http://www.w3.org/2000/svg" xmlns:xlink="http://www.w3.org/1999/xlink" width="50px" height="50px" viewBox="0 0 50 50">
  <!-- Generator: Sketch 60.1 (88133) - https://sketch.com -->
  <title>StretchWool-black</title>
  <desc>Created with Sketch.</desc>
  <g id="StretchWool" stroke="none" stroke-width="1" fill="none" fill-rule="evenodd" stroke-linecap="round">
    <g transform="translate(11.000000, 3.000000)" stroke="#000000" stroke-width="2">
      <path d="M24.9972639,23.0289738 C31.2507103,11.0596169 23.9767412,2.28761372 17.7657555,0.584975612 C9.85487487,-1.58439762 2.17093971,2.5289783 0.438833133,8.81463548 C-1.47482984,15.7545942 3.06261587,23.4782609 10.3073017,23.4782609 C16.105393,23.4782609 20.7804702,20.3361593 20.7804702,14.5797594 C20.7804702,9.97493028 17.02196,6.24104926 12.3834869,6.24104926 C8.6747583,6.24104926 5.66590031,9.22902648 5.66590031,12.9134714 C5.66590031,15.8592825 8.07152254,18.2496642 11.0408481,18.2496642 C13.4142587,18.2496642 16.559284,16.7447706 16.1083213,13.6768232 C15.695427,10.8749584 11.5884456,9.861518 10.3629399,13.3976545" id="Stroke-1"></path>
      <line x1="0.97826087" y1="32.2826087" x2="27.3913043" y2="32.2826087" id="Stroke-3"></line>
      <polyline id="Stroke-5" points="2.93478261 28.8586957 0 32.2841204 2.93478261 35.7065217"></polyline>
      <line x1="26.4130435" y1="41.0869565" x2="0" y2="41.0869565" id="Stroke-7"></line>
      <polyline id="Stroke-9" points="24.4565217 44.5108696 27.3913043 41.0862009 24.4565217 37.6630435"></polyline>
    </g>
  </g>
</svg>
