<?xml version="1.0" encoding="UTF-8"?>
<svg xmlns="http://www.w3.org/2000/svg" xmlns:xlink="http://www.w3.org/1999/xlink" width="50px" height="50px" viewBox="0 0 50 50">
  <!-- Generator: Sketch 60.1 (88133) - https://sketch.com -->
  <title>UltraDynamicStretch-black</title>
  <desc>Created with Sketch.</desc>
  <g id="UltraDynamicStretch" stroke="none" stroke-width="1" fill="none" fill-rule="evenodd">
    <g transform="translate(2.500000, 5.000000)" fill="#000000">
      <path d="M5.70827446,11.6672924 L0.0404755435,5.97503701 L5.70827446,0.277890275 C6.07634511,-0.0914032031 6.67308424,-0.0926260292 7.04360054,0.274221797 C7.41411685,0.642292449 7.41533967,1.24025441 7.04726902,1.60954788 L3.64658967,5.02979245 L29.6854484,5.02979245 C30.2063723,5.02979245 30.6294701,5.45166745 30.6294701,5.97381419 C30.6294701,6.49596093 30.2063723,6.91905875 29.6854484,6.91905875 L3.64536685,6.91905875 L7.04726902,10.3368577 C7.41533967,10.7049283 7.41411685,11.3041131 7.04360054,11.6709609 C6.86017663,11.8556077 6.61805707,11.9460968 6.37716033,11.9460968 C6.13504076,11.9460968 5.8929212,11.853162 5.70827446,11.6672924 Z M38.6646603,25.5683794 C38.4237636,25.5683794 38.1840897,25.4766674 37.9994429,25.2932435 C37.6301495,24.9251729 37.6277038,24.3272109 37.9957745,23.9579174 L41.4392527,20.494874 L12.7236277,20.4899827 C12.201481,20.4899827 11.7783832,20.0668848 11.7783832,19.5459609 C11.7783832,19.0238142 12.2027038,18.6007164 12.7236277,18.6007164 L41.3561005,18.6056077 L37.9957745,15.2293848 C37.6277038,14.8588685 37.6301495,14.2621294 37.9994429,13.8940588 C38.3687364,13.5247653 38.9666984,13.5272109 39.3335462,13.8977272 L45.0001223,19.5924283 L39.3335462,25.2895751 C39.1501223,25.4742218 38.9080027,25.5683794 38.6646603,25.5683794 M6.37716033,39.0903903 C6.13504076,39.0903903 5.8929212,38.9974555 5.70827446,38.8128088 L0.0416983696,33.1168848 L5.70827446,27.4197381 C6.07634511,27.0528903 6.67308424,27.0492218 7.04360054,27.4160696 C7.41411685,27.7841403 7.41533967,28.3821022 7.04726902,28.7513957 L3.64658967,32.1728631 L28.7402038,32.1728631 C29.2623505,32.1728631 29.6854484,32.5959609 29.6854484,33.1168848 C29.6854484,33.6390316 29.2623505,34.0609066 28.7402038,34.0609066 L3.64536685,34.0609066 L7.04726902,37.4811511 C7.41533967,37.8516674 7.41411685,38.4484066 7.04360054,38.8164772 C6.8589538,38.9999011 6.61805707,39.0903903 6.37716033,39.0903903" id="Fill-1"></path>
      <path d="M43.8933424,34.1491946 L39.1732337,34.1491946 C38.651087,34.1491946 38.2279891,33.7273196 38.2279891,33.2063957 C38.2279891,32.684249 38.651087,32.2611511 39.1732337,32.2611511 L43.8933424,32.2611511 C44.4154891,32.2611511 44.8373641,32.684249 44.8373641,33.2063957 C44.8373641,33.7273196 44.4154891,34.1491946 43.8933424,34.1491946" id="Fill-3"></path>
      <path d="M41.5336549,36.5459338 C41.0115082,36.5459338 40.5896332,36.1240588 40.5896332,35.601912 L40.5896332,30.8805805 C40.5896332,30.3584338 41.0115082,29.9365588 41.5336549,29.9365588 C42.0558016,29.9365588 42.4764538,30.3584338 42.4764538,30.8805805 L42.4764538,35.601912 C42.4764538,36.1240588 42.0558016,36.5459338 41.5336549,36.5459338" id="Fill-5"></path>
      <path d="M43.9553397,6.76816201 L39.2340082,6.76816201 C38.7118614,6.76816201 38.2899864,6.34506419 38.2899864,5.82414028 C38.2899864,5.30199354 38.7118614,4.87889571 39.2340082,4.87889571 L43.9553397,4.87889571 C44.4774864,4.87889571 44.8981386,5.30199354 44.8981386,5.82414028 C44.8981386,6.34506419 44.4774864,6.76816201 43.9553397,6.76816201" id="Fill-7"></path>
      <path d="M41.5945516,9.16367832 C41.0724049,9.16367832 40.6505299,8.74180332 40.6505299,8.22087941 L40.6505299,3.49832506 C40.6505299,2.97617832 41.0724049,2.55552614 41.5945516,2.55552614 C42.1166984,2.55552614 42.5385734,2.97617832 42.5385734,3.49832506 L42.5385734,8.22087941 C42.5385734,8.74180332 42.1166984,9.16367832 41.5945516,9.16367832" id="Fill-9"></path>
      <path d="M5.66535326,20.4903495 L0.945244565,20.4903495 C0.423097826,20.4903495 1.13686838e-13,20.0672517 1.13686838e-13,19.5463278 C1.13686838e-13,19.024181 0.423097826,18.602306 0.945244565,18.602306 L5.66535326,18.602306 C6.1875,18.602306 6.609375,19.024181 6.609375,19.5463278 C6.609375,20.0672517 6.1875,20.4903495 5.66535326,20.4903495" id="Fill-11"></path>
      <path d="M3.30456522,22.8869664 C2.78241848,22.8869664 2.3617663,22.4638685 2.3617663,21.9429446 L2.3617663,17.2216131 C2.3617663,16.6994664 2.78241848,16.2775914 3.30456522,16.2775914 C3.82671196,16.2775914 4.24858696,16.6994664 4.24858696,17.2216131 L4.24858696,21.9429446 C4.24858696,22.4638685 3.82671196,22.8869664 3.30456522,22.8869664" id="Fill-14"></path>
    </g>
  </g>
</svg>
