<?xml version="1.0" encoding="UTF-8"?>
<svg xmlns="http://www.w3.org/2000/svg" xmlns:xlink="http://www.w3.org/1999/xlink" width="50px" height="50px" viewBox="0 0 50 50">
  <!-- Generator: Sketch 60.1 (88133) - https://sketch.com -->
  <title>Windresistant-black</title>
  <desc>Created with Sketch.</desc>
  <g id="Windresistant" stroke="none" stroke-width="1" fill="none" fill-rule="evenodd" stroke-linecap="round">
    <g transform="translate(7.000000, 3.000000)" stroke="#000000" stroke-width="2">
      <line x1="35.1758769" y1="30.2696" x2="1.06633846" y2="30.2696" id="Stroke-1"></line>
      <path d="M0.852553846,43.8831385 C3.69932308,41.0677538 10.3639385,39.0905231 18.1325538,39.0905231 C25.8808615,39.0905231 32.5307077,41.0585231 35.3904,43.8609846" id="Stroke-3"></path>
      <path d="M5.45950085,7.39272124 C9.81216933,11.6731242 12.5828878,14.4881528 13.7716561,15.8378071 C15.5548087,17.8622886 14.8282546,21.8045648 11.0066429,22.4389803 C7.18503115,23.0733958 5.00593941,18.4556268 7.10601447,15.8378071" id="Path-3"></path>
      <path d="M15.9339098,-2.93390983 C20.2865783,1.34649309 23.0572967,4.16152172 24.2460651,5.51117604 C26.0292177,7.53565753 25.3026636,11.4779337 21.4810519,12.1123492 C17.6594401,12.7467647 15.4803484,8.12899577 17.5804234,5.51117604" id="Path-3" transform="translate(20.552720, 4.618810) scale(1, -1) rotate(-90.000000) translate(-20.552720, -4.618810) "></path>
      <path d="M9.48495479,-1.38286487 C20.8280119,9.83908945 27.0939247,16.1248938 28.2826931,17.4745481 C30.0658456,19.4990296 29.3392915,23.4413058 25.5176798,24.0757213 C21.6960681,24.7101368 19.5169763,20.0923678 21.6170514,17.4745481" id="Path-3" transform="translate(19.346556, 11.376018) scale(1, -1) rotate(-90.000000) translate(-19.346556, -11.376018) "></path>
    </g>
  </g>
</svg>
