<?xml version="1.0" encoding="UTF-8"?>
<svg xmlns="http://www.w3.org/2000/svg" xmlns:xlink="http://www.w3.org/1999/xlink" width="50px" height="50px" viewBox="0 0 50 50">
  <!-- Generator: Sketch 60.1 (88133) - https://sketch.com -->
  <title>Wrinkle-resistant-black</title>
  <desc>Created with Sketch.</desc>
  <g id="Wrinkle-resistant" stroke="none" stroke-width="1" fill="none" fill-rule="evenodd">
    <path d="M25.3237113,4.9547449 C14.103866,4.9547449 4.97536082,13.9896429 4.97536082,25.0931633 C4.97536082,36.1985204 14.103866,45.2343367 25.3237113,45.2343367 C36.5430928,45.2343367 45.6706701,36.1985204 45.6706701,25.0931633 C45.6706701,13.9896429 36.5430928,4.9547449 25.3237113,4.9547449 M25.3237113,47.1890816 C13.0145876,47.1890816 3,37.2771429 3,25.0931633 C3,12.9105612 13.0145876,3 25.3237113,3 C37.6323711,3 47.645567,12.9105612 47.645567,25.0931633 C47.645567,37.2771429 37.6323711,47.1890816 25.3237113,47.1890816" id="Fill-1" fill="#000000"></path>
    <line x1="10" y1="10" x2="40.5953729" y2="40.5953729" id="Path-24" stroke="#000000" stroke-width="2"></line>
    <path d="M21.3738522,16 L35.7368421,16 L37,34 L13,34 C14.2805426,27.2468918 17.4578556,23.8703377 22.5319389,23.8703377 C27.4642993,23.8703377 31.9601804,23.8703377 36.0195823,23.8703377" id="Rectangle-3" stroke="#000000" stroke-width="2" stroke-linecap="round" stroke-linejoin="round"></path>
  </g>
</svg>
